<svg width="30" height="30" viewBox="0 0 30 30" fill="none" xmlns="http://www.w3.org/2000/svg">
<rect width="30" height="30" rx="15" fill="#CDE2FB" fill-opacity="0.3"/>
<path d="M15 18.5C15.55 18.5 16.0208 18.3042 16.4125 17.9125C16.8042 17.5208 17 17.05 17 16.5C17 15.95 16.8042 15.4792 16.4125 15.0875C16.0208 14.6958 15.55 14.5 15 14.5C14.45 14.5 13.9792 14.6958 13.5875 15.0875C13.1958 15.4792 13 15.95 13 16.5C13 17.05 13.1958 17.5208 13.5875 17.9125C13.9792 18.3042 14.45 18.5 15 18.5ZM7 24C6.45 24 5.97917 23.8042 5.5875 23.4125C5.19583 23.0208 5 22.55 5 22V11C5 10.45 5.19583 9.97917 5.5875 9.5875C5.97917 9.19583 6.45 9 7 9H11V7C11 6.45 11.1958 5.97917 11.5875 5.5875C11.9792 5.19583 12.45 5 13 5H17C17.55 5 18.0208 5.19583 18.4125 5.5875C18.8042 5.97917 19 6.45 19 7V9H23C23.55 9 24.0208 9.19583 24.4125 9.5875C24.8042 9.97917 25 10.45 25 11V22C25 22.55 24.8042 23.0208 24.4125 23.4125C24.0208 23.8042 23.55 24 23 24H7ZM7 22H23V11H7V22ZM13 9H17V7H13V9Z" fill="#08A4FF" fill-opacity="0.8"/>
</svg>
