<svg width="30" height="30" viewBox="0 0 30 30" fill="none" xmlns="http://www.w3.org/2000/svg">
<rect width="30" height="30" rx="15" fill="#CDE2FB" fill-opacity="0.3"/>
<path d="M11 21H19V19H11V21ZM11 17H19V15H11V17ZM9 25C8.45 25 7.97917 24.8042 7.5875 24.4125C7.19583 24.0208 7 23.55 7 23V7C7 6.45 7.19583 5.97917 7.5875 5.5875C7.97917 5.19583 8.45 5 9 5H17L23 11V23C23 23.55 22.8042 24.0208 22.4125 24.4125C22.0208 24.8042 21.55 25 21 25H9ZM16 12V7H9V23H21V12H16Z" fill="#08A4FF" fill-opacity="0.8"/>
</svg>
